# xmcd
#
# Track frame offsets:
#	150
#	17821
#	40076
#	61258
#	84181
#	102155
#	118201
#	131232
#	150024
#	166241
#	234579
#
# Disc length: 3391 seconds
#
# Revision: 1
# Processed by: cddbd v1.4PL0 Copyright (c) Steve Scherf et al.
# Submitted via: EasyCDDAExtractor 5.0.6
#
DISCID=7d0d3d0b
DTITLE=harris newman - non-sequiturs
DYEAR=2003
DGENRE=Acoustic
TTITLE0=around about thirty-six
TTITLE1=bitten
TTITLE2=the bullheaded stranger
TTITLE3=sometimes having a bad attitude is all it takes
TTITLE4=feral blues
TTITLE5=the pyramids
TTITLE6=trick question
TTITLE7=god is in the details
TTITLE8=i fought the lottery
TTITLE9=forest for the trees
TTITLE10=throwing the goat
EXTD=
EXTT0=
EXTT1=
EXTT2=
EXTT3=
EXTT4=
EXTT5=
EXTT6=
EXTT7=
EXTT8=
EXTT9=
EXTT10=
PLAYORDER=
